<svg xmlns="http://www.w3.org/2000/svg" viewBox="0 0 34.11 55.19"><defs><style>.cls-1{fill:#231815;}</style></defs><g id="레이어_2" data-name="레이어 2"><g id="레이어_1-2" data-name="레이어 1"><path class="cls-1" d="M28.17,5.55s-4.82-3.13-10-1a12.11,12.11,0,0,0-6.73,6.76l.21.37a7.4,7.4,0,1,1,7.56,12.31l9,4.84a17.54,17.54,0,0,0,5.87-11.55C34.68,9.86,28.17,5.55,28.17,5.55Z"/><path class="cls-1" d="M11.69,22.22a10.45,10.45,0,0,1-2.54-4.54c-.09-.54-.17-1.14-.24-1.76a3.71,3.71,0,0,0,0-.53,10.7,10.7,0,0,1,.21-4C9.94,8.88,11.9,2.45,22.86,1.19c0,0-8.66-3.37-14.74,1.23s-8.76,9-8,17.4V49.69h0c0,1,0,2,.07,3.21.1,1.56.39,2.32.87,2.29a2.56,2.56,0,0,0,1.29-.44c4.29-3.32,6.33-3,7.05-7.12a2.8,2.8,0,0,0,.12-.76v0a68.17,68.17,0,0,0,.09-9.25c0-.7-.06-1.37-.09-2V32l5,3.09a4.8,4.8,0,0,0,3.58.32c1.59-.7,8.2-4.69,8.2-4.69Z"/></g></g></svg>