<?xml version="1.0" encoding="utf-8"?>
<!-- Generator: Adobe Illustrator 26.2.1, SVG Export Plug-In . SVG Version: 6.00 Build 0)  -->
<svg version="1.1" id="레이어_1" xmlns="http://www.w3.org/2000/svg" xmlns:xlink="http://www.w3.org/1999/xlink" x="0px"
	 y="0px" viewBox="0 0 48 48" style="enable-background:new 0 0 48 48;" xml:space="preserve">
<style type="text/css">
	.st0{fill:#FFFFFF;}
</style>
<path class="st0" d="M24,44c-2.8,0-5.4-0.5-7.9-1.6c-2.4-1-4.6-2.5-6.3-4.3s-3.2-3.9-4.2-6.4S4,26.7,4,23.9s0.5-5.4,1.6-7.8
	S8,11.5,9.8,9.7s3.9-3.2,6.3-4.2S21.2,4,24,4s5.4,0.5,7.9,1.5s4.5,2.4,6.4,4.2c1.8,1.8,3.2,3.9,4.2,6.3s1.5,5,1.5,7.8
	s-0.5,5.4-1.5,7.9s-2.5,4.6-4.2,6.4c-1.8,1.8-3.9,3.2-6.4,4.3S26.8,44,24,44z M24,41.1c1.2-1.2,2.1-2.6,2.9-4.1
	c0.8-1.5,1.4-3.4,1.9-5.5h-9.6c0.5,2,1.1,3.8,1.9,5.4C21.9,38.4,22.8,39.9,24,41.1z M19.8,40.5c-0.8-1.3-1.6-2.6-2.1-4.1
	c-0.6-1.5-1.1-3.1-1.5-5H8.6c1.3,2.4,2.7,4.2,4.4,5.6S16.9,39.5,19.8,40.5z M28.3,40.4c2.4-0.8,4.6-1.9,6.5-3.5
	c1.9-1.5,3.5-3.4,4.6-5.5h-7.5c-0.4,1.8-0.9,3.4-1.5,4.9C29.8,37.8,29.1,39.2,28.3,40.4z M7.6,28.4h7.9c-0.1-0.9-0.2-1.7-0.2-2.4
	c0-0.7,0-1.4,0-2.1c0-0.8,0-1.6,0.1-2.2c0-0.6,0.1-1.4,0.2-2.2h-8c-0.2,0.8-0.4,1.5-0.5,2.1C7,22.3,7,23,7,23.9c0,0.9,0,1.6,0.1,2.3
	C7.2,26.9,7.4,27.6,7.6,28.4z M18.6,28.4h10.8c0.1-1,0.2-1.9,0.2-2.5c0-0.6,0-1.3,0-2c0-0.7,0-1.3,0-1.9c0-0.6-0.1-1.4-0.2-2.5H18.6
	c-0.1,1-0.2,1.9-0.2,2.5c0,0.6,0,1.3,0,1.9c0,0.7,0,1.4,0,2S18.5,27.4,18.6,28.4z M32.4,28.4h8c0.2-0.8,0.4-1.5,0.5-2.2
	c0.1-0.7,0.1-1.5,0.1-2.3c0-0.9,0-1.6-0.1-2.2c-0.1-0.6-0.2-1.4-0.5-2.1h-8c0.1,1.2,0.2,2.1,0.2,2.7c0,0.6,0,1.2,0,1.7
	c0,0.7,0,1.4-0.1,2.1C32.6,26.6,32.5,27.4,32.4,28.4z M31.9,16.5h7.5c-1.1-2.3-2.6-4.2-4.5-5.7s-4.1-2.6-6.6-3.3
	c0.8,1.2,1.5,2.6,2.1,4S31.5,14.6,31.9,16.5z M19.2,16.5h9.7c-0.4-1.8-1-3.5-1.9-5.1c-0.9-1.7-1.9-3.1-3-4.4c-1.1,0.9-2,2.1-2.7,3.6
	S19.9,14,19.2,16.5z M8.6,16.5h7.6c0.4-1.8,0.8-3.4,1.4-4.8c0.6-1.4,1.3-2.8,2.1-4.1c-2.5,0.6-4.7,1.7-6.6,3.2S9.8,14.2,8.6,16.5z"
	/>
</svg>
